M48
;DRILL file {Pcbnew (2013-jun-18)-testing} date Sun 14 Jul 2013 06:43:42 PM EEST
;FORMAT={-:-/ absolute / metric / decimal}
FMAT,2
METRIC,TZ
T1C0.600
T2C0.800
T3C1.000
%
G90
G05
M71
T1
X6.35Y26.035
X8.89Y20.32
X10.16Y16.51
T2
X1.905Y29.845
X1.905Y19.685
X4.445Y29.845
X4.445Y27.305
X4.445Y24.765
X4.445Y22.225
X4.445Y19.685
X4.445Y17.145
X4.445Y14.605
X4.445Y12.065
X4.445Y9.525
X6.985Y9.525
X12.065Y29.845
X12.065Y27.305
X12.065Y24.765
X12.065Y22.225
X12.065Y19.685
X12.065Y17.145
X12.065Y14.605
X12.065Y12.065
T3
X4.445Y6.985
X6.985Y6.985
X9.525Y6.985
X12.065Y6.985
X15.875Y29.845
X15.875Y27.305
X15.875Y24.765
X15.875Y22.225
X15.875Y19.685
X15.875Y17.145
X15.875Y14.605
X15.875Y12.065
X15.875Y9.525
X15.875Y6.985
X15.875Y4.445
X15.875Y1.905
T0
M30
