G04 (created by PCBNEW (2013-jun-18)-testing) date Sun 14 Jul 2013 06:43:36 PM EEST*
%MOIN*%
G04 Gerber Fmt 3.4, Leading zero omitted, Abs format*
%FSLAX34Y34*%
G01*
G70*
G90*
G04 APERTURE LIST*
%ADD10C,0.005906*%
%ADD11C,0.011811*%
%ADD12R,0.062992X0.086614*%
%ADD13O,0.062992X0.086614*%
%ADD14O,0.086614X0.059055*%
%ADD15R,0.086614X0.062992*%
%ADD16O,0.086614X0.062992*%
%ADD17C,0.059055*%
%ADD18C,0.035000*%
%ADD19C,0.016000*%
%ADD20C,0.024000*%
G04 APERTURE END LIST*
G54D10*
G54D11*
X7517Y862D02*
X7517Y1199D01*
X7517Y1031D02*
X6926Y1031D01*
X7010Y1087D01*
X7067Y1143D01*
X7095Y1199D01*
X6982Y637D02*
X6954Y609D01*
X6926Y553D01*
X6926Y412D01*
X6954Y356D01*
X6982Y328D01*
X7039Y300D01*
X7095Y300D01*
X7179Y328D01*
X7517Y665D01*
X7517Y300D01*
X7517Y2862D02*
X7517Y3199D01*
X7517Y3031D02*
X6926Y3031D01*
X7010Y3087D01*
X7067Y3143D01*
X7095Y3199D01*
X6926Y2496D02*
X6926Y2440D01*
X6954Y2384D01*
X6982Y2356D01*
X7039Y2328D01*
X7151Y2300D01*
X7292Y2300D01*
X7404Y2328D01*
X7460Y2356D01*
X7489Y2384D01*
X7517Y2440D01*
X7517Y2496D01*
X7489Y2553D01*
X7460Y2581D01*
X7404Y2609D01*
X7292Y2637D01*
X7151Y2637D01*
X7039Y2609D01*
X6982Y2581D01*
X6954Y2553D01*
X6926Y2496D01*
X7517Y11581D02*
X7517Y11918D01*
X7517Y11749D02*
X6926Y11749D01*
X7010Y11806D01*
X7067Y11862D01*
X7095Y11918D01*
X5017Y1573D02*
X4735Y1770D01*
X5017Y1910D02*
X4426Y1910D01*
X4426Y1685D01*
X4454Y1629D01*
X4482Y1601D01*
X4539Y1573D01*
X4623Y1573D01*
X4679Y1601D01*
X4707Y1629D01*
X4735Y1685D01*
X4735Y1910D01*
X4989Y1348D02*
X5017Y1264D01*
X5017Y1123D01*
X4989Y1067D01*
X4960Y1039D01*
X4904Y1010D01*
X4848Y1010D01*
X4792Y1039D01*
X4764Y1067D01*
X4735Y1123D01*
X4707Y1235D01*
X4679Y1292D01*
X4651Y1320D01*
X4595Y1348D01*
X4539Y1348D01*
X4482Y1320D01*
X4454Y1292D01*
X4426Y1235D01*
X4426Y1095D01*
X4454Y1010D01*
X4426Y842D02*
X4426Y504D01*
X5017Y673D02*
X4426Y673D01*
X3960Y1601D02*
X3989Y1629D01*
X4017Y1714D01*
X4017Y1770D01*
X3989Y1854D01*
X3932Y1910D01*
X3876Y1938D01*
X3764Y1967D01*
X3679Y1967D01*
X3567Y1938D01*
X3510Y1910D01*
X3454Y1854D01*
X3426Y1770D01*
X3426Y1714D01*
X3454Y1629D01*
X3482Y1601D01*
X4017Y1067D02*
X4017Y1348D01*
X3426Y1348D01*
X4017Y870D02*
X3426Y870D01*
X4017Y532D02*
X3679Y785D01*
X3426Y532D02*
X3764Y870D01*
X2426Y2037D02*
X3017Y1840D01*
X2426Y1643D01*
X2960Y1109D02*
X2989Y1137D01*
X3017Y1221D01*
X3017Y1278D01*
X2989Y1362D01*
X2932Y1418D01*
X2876Y1446D01*
X2764Y1474D01*
X2679Y1474D01*
X2567Y1446D01*
X2510Y1418D01*
X2454Y1362D01*
X2426Y1278D01*
X2426Y1221D01*
X2454Y1137D01*
X2482Y1109D01*
X2960Y518D02*
X2989Y546D01*
X3017Y631D01*
X3017Y687D01*
X2989Y771D01*
X2932Y828D01*
X2876Y856D01*
X2764Y884D01*
X2679Y884D01*
X2567Y856D01*
X2510Y828D01*
X2454Y771D01*
X2426Y687D01*
X2426Y631D01*
X2454Y546D01*
X2482Y518D01*
X1454Y1699D02*
X1426Y1756D01*
X1426Y1840D01*
X1454Y1924D01*
X1510Y1981D01*
X1567Y2009D01*
X1679Y2037D01*
X1764Y2037D01*
X1876Y2009D01*
X1932Y1981D01*
X1989Y1924D01*
X2017Y1840D01*
X2017Y1784D01*
X1989Y1699D01*
X1960Y1671D01*
X1764Y1671D01*
X1764Y1784D01*
X2017Y1418D02*
X1426Y1418D01*
X2017Y1081D01*
X1426Y1081D01*
X2017Y800D02*
X1426Y800D01*
X1426Y659D01*
X1454Y575D01*
X1510Y518D01*
X1567Y490D01*
X1679Y462D01*
X1764Y462D01*
X1876Y490D01*
X1932Y518D01*
X1989Y575D01*
X2017Y659D01*
X2017Y800D01*
G54D12*
X1750Y2750D03*
G54D13*
X2750Y2750D03*
X3750Y2750D03*
X4750Y2750D03*
G54D14*
X4750Y4750D03*
X4750Y5750D03*
X4750Y6750D03*
X4750Y7750D03*
X4750Y8750D03*
X4750Y9750D03*
X4750Y10750D03*
X4750Y11750D03*
X1750Y11750D03*
X1750Y10750D03*
X1750Y9750D03*
X1750Y8750D03*
X1750Y7750D03*
X1750Y6750D03*
X1750Y5750D03*
X1750Y4750D03*
G54D15*
X6250Y11750D03*
G54D16*
X6250Y10750D03*
X6250Y9750D03*
X6250Y8750D03*
X6250Y7750D03*
X6250Y6750D03*
X6250Y5750D03*
X6250Y4750D03*
X6250Y3750D03*
X6250Y2750D03*
X6250Y1750D03*
X6250Y750D03*
G54D17*
X750Y11750D03*
X750Y7750D03*
X2750Y3750D03*
X1750Y3750D03*
G54D18*
X4000Y6500D03*
X3500Y8000D03*
X2500Y10250D03*
G54D19*
X3750Y2750D02*
X3750Y3750D01*
X2750Y10750D02*
X1750Y10750D01*
X3000Y10500D02*
X2750Y10750D01*
X3000Y4500D02*
X3000Y10500D01*
X3750Y3750D02*
X3000Y4500D01*
X1750Y11750D02*
X2750Y11750D01*
X2750Y11750D02*
X3250Y11250D01*
X3250Y11250D02*
X5500Y11250D01*
X6000Y11750D02*
X6250Y11750D01*
X5500Y11250D02*
X6000Y11750D01*
X4750Y10750D02*
X6250Y10750D01*
X6000Y750D02*
X6250Y750D01*
X5500Y1250D02*
X6000Y750D01*
X5500Y3500D02*
X5500Y1250D01*
X4750Y4750D02*
X4750Y4250D01*
X4750Y4250D02*
X5500Y3500D01*
X4750Y9750D02*
X6250Y9750D01*
X4750Y8750D02*
X6250Y8750D01*
X5000Y6750D02*
X4750Y6750D01*
X6000Y7750D02*
X5000Y6750D01*
X6250Y7750D02*
X6000Y7750D01*
X5000Y5750D02*
X4750Y5750D01*
X6000Y6750D02*
X5000Y5750D01*
X6250Y6750D02*
X6000Y6750D01*
X6000Y3750D02*
X6250Y3750D01*
X5500Y4250D02*
X6000Y3750D01*
X5500Y5000D02*
X5500Y4250D01*
X5250Y5250D02*
X5500Y5000D01*
X4000Y6500D02*
X4000Y5500D01*
X4000Y5500D02*
X4250Y5250D01*
X4250Y5250D02*
X5250Y5250D01*
X4750Y2750D02*
X4750Y3750D01*
X3500Y5000D02*
X3500Y8000D01*
X4750Y3750D02*
X3500Y5000D01*
G54D20*
X1750Y2750D02*
X1750Y3750D01*
X1750Y3750D02*
X1250Y3750D01*
X750Y4250D02*
X750Y7750D01*
X1250Y3750D02*
X750Y4250D01*
X1750Y3750D02*
X2500Y4500D01*
X2500Y4500D02*
X2500Y5250D01*
X2500Y5250D02*
X2500Y10250D01*
M02*
